<?xml version="1.0" standalone="no"?><!DOCTYPE svg PUBLIC "-//W3C//DTD SVG 1.1//EN"
        "http://www.w3.org/Graphics/SVG/1.1/DTD/svg11.dtd">
<svg t="1555783365122" class="icon" style="" viewBox="0 0 1024 1024" version="1.1" xmlns="http://www.w3.org/2000/svg"
     p-id="2001"
     width="200" height="200">
    <defs>
        <style type="text/css"></style>
    </defs>
    <path d="M512 85.34016q17.67424 0 30.16704 12.4928t12.4928 30.16704l0 341.34016 341.34016 0q17.67424 0 30.16704 12.4928t12.4928 30.16704-12.4928 30.16704-30.16704 12.4928l-341.34016 0 0 341.34016q0 17.67424-12.4928 30.16704t-30.16704 12.4928-30.16704-12.4928-12.4928-30.16704l0-341.34016-341.34016 0q-17.67424 0-30.16704-12.4928t-12.4928-30.16704 12.4928-30.16704 30.16704-12.4928l341.34016 0 0-341.34016q0-17.67424 12.4928-30.16704t30.16704-12.4928z"
          p-id="2002" fill="#ffffff"></path>
</svg>