<?xml version="1.0" standalone="no"?><!DOCTYPE svg PUBLIC "-//W3C//DTD SVG 1.1//EN"
        "http://www.w3.org/Graphics/SVG/1.1/DTD/svg11.dtd">
<svg t="1555783911602" class="icon" style="" viewBox="0 0 1024 1024" version="1.1" xmlns="http://www.w3.org/2000/svg"
     p-id="1500"
     width="200" height="200">
    <defs>
        <style type="text/css"></style>
    </defs>
    <path d="M421.395 545.375H258.804V428.62c0-69.278 33.415-131.049 84.866-170.222 7.883-6.002 12.43-15.407 12.43-25.315v-78.631c0-19.977-18.121-35.167-37.755-31.482-144.13 27.043-254.133 153.971-254.133 305.65v435.02c0 17.6 14.4 32 32 32h325.183c17.6 0 32-14.4 32-32V577.375c0-17.6-14.4-32-32-32zM927.333 545.375H764.742V428.62c0-69.278 33.415-131.049 84.866-170.222 7.883-6.002 12.43-15.407 12.43-25.315v-78.631c0-19.977-18.121-35.167-37.755-31.482-144.13 27.043-254.133 153.971-254.133 305.65v435.02c0 17.6 14.4 32 32 32h325.183c17.6 0 32-14.4 32-32V577.375c0-17.6-14.4-32-32-32z"
          p-id="1501" fill="#515151"></path>
</svg>