<?xml version="1.0" standalone="no"?><!DOCTYPE svg PUBLIC "-//W3C//DTD SVG 1.1//EN"
        "http://www.w3.org/Graphics/SVG/1.1/DTD/svg11.dtd">
<svg t="1555783927026" class="icon" style="" viewBox="0 0 1024 1024" version="1.1" xmlns="http://www.w3.org/2000/svg"
     p-id="1848"
     width="200" height="200">
    <defs>
        <style type="text/css"></style>
    </defs>
    <path d="M602.15 472.68h162.592v116.755c0 69.278-33.415 131.049-84.866 170.222-7.883 6.002-12.43 15.407-12.43 25.315v78.631c0 19.977 18.121 35.167 37.755 31.482C849.33 868.04 959.333 741.113 959.333 589.434V154.415c0-17.6-14.4-32-32-32H602.15c-17.6 0-32 14.4-32 32V440.68c0 17.6 14.4 32 32 32zM96.212 472.68h162.592v116.755c0 69.278-33.415 131.049-84.866 170.222-7.883 6.002-12.43 15.407-12.43 25.315v78.631c0 19.977 18.121 35.167 37.755 31.482 144.129-27.045 254.132-153.972 254.132-305.651V154.415c0-17.6-14.4-32-32-32H96.212c-17.6 0-32 14.4-32 32V440.68c0 17.6 14.4 32 32 32z"
          p-id="1849" fill="#515151"></path>
</svg>