<?xml version="1.0" standalone="no"?><!DOCTYPE svg PUBLIC "-//W3C//DTD SVG 1.1//EN"
        "http://www.w3.org/Graphics/SVG/1.1/DTD/svg11.dtd">
<svg t="1554543857412" class="icon" style="" viewBox="0 0 1024 1024" version="1.1" xmlns="http://www.w3.org/2000/svg"
     p-id="1042"
     width="200" height="200">
    <defs>
        <style type="text/css"></style>
    </defs>
    <path d="M445 143.6h358.4v296.8H445z" fill="#F4BA45" p-id="1043"></path>
    <path d="M803.4 455.3H445c-8.2 0-14.9-6.7-14.9-14.9V143.6c0-8.2 6.7-14.9 14.9-14.9h358.4c8.2 0 14.9 6.7 14.9 14.9v296.8c0 8.2-6.6 14.9-14.9 14.9z m-343.5-29.9h328.5V158.5H459.9v266.9z"
          fill="#434343" p-id="1044"></path>
    <path d="M213.5 314.4v-35l0.2 0.3c-4.8-7.2-7.7-15.8-7.7-25 0-24.7 20.1-44.8 44.8-44.8s44.8 20.1 44.8 44.8c0 9.2-2.7 17.7-7.5 24.8v35l-74.6-0.1z"
          fill="#EF4545" p-id="1045"></path>
    <path d="M288.2 329.3h-74.7c-8.2 0-14.9-6.7-14.9-14.9v-30.8c-4.9-8.8-7.5-18.7-7.5-28.9 0-32.9 26.8-59.7 59.7-59.7s59.7 26.8 59.7 59.7c0 10.2-2.6 20.1-7.5 28.9v30.8c0.1 8.2-6.5 14.9-14.8 14.9z m-59.7-29.9h44.8v-20.1c0-3.1 1-6.2 2.8-8.7 3.1-4.8 4.7-10.3 4.7-16.1 0-16.5-13.4-29.9-29.9-29.9S221 238 221 254.5c0 5.8 1.6 11.3 4.7 16.1 0.2 0.2 0.3 0.4 0.4 0.7l0.2 0.3c2 3.2 2.7 6.8 2.1 10.3v17.5h0.1z"
          fill="#434343" p-id="1046"></path>
    <path d="M512.2 300.4v-35l0.2 0.3c-4.8-7.2-7.7-15.8-7.7-25 0-24.7 20.1-44.8 44.8-44.8s44.8 20.1 44.8 44.8c0 9.2-2.7 17.7-7.5 24.8v35l-74.6-0.1z"
          fill="#EF4545" p-id="1047"></path>
    <path d="M586.9 315.3h-74.7c-8.2 0-14.9-6.7-14.9-14.9v-30.8c-4.9-8.8-7.5-18.7-7.5-28.9 0-32.9 26.8-59.7 59.7-59.7s59.7 26.8 59.7 59.7c0 10.2-2.6 20.1-7.5 28.9v30.8c0.1 8.2-6.6 14.9-14.8 14.9z m-59.8-29.9h44.8v-20.1c0-3.1 1-6.2 2.8-8.7 3.1-4.8 4.7-10.3 4.7-16.1 0-16.5-13.4-29.9-29.9-29.9s-29.9 13.4-29.9 29.9c0 5.8 1.6 11.3 4.7 16.1 0.2 0.2 0.3 0.5 0.5 0.7l0.2 0.3c2 3.2 2.7 6.8 2.1 10.3v17.5z"
          fill="#434343" p-id="1048"></path>
    <path d="M661.5 300.4v-35l0.2 0.3c-4.8-7.2-7.7-15.8-7.7-25 0-24.7 20.1-44.8 44.8-44.8s44.8 20.1 44.8 44.8c0 9.2-2.7 17.7-7.5 24.8v35l-74.6-0.1z"
          fill="#EF4545" p-id="1049"></path>
    <path d="M736.2 315.3h-74.7c-8.2 0-14.9-6.7-14.9-14.9v-30.8c-4.9-8.8-7.5-18.7-7.5-28.9 0-32.9 26.8-59.7 59.7-59.7s59.7 26.8 59.7 59.7c0 10.2-2.6 20.1-7.5 28.9v30.8c0.1 8.2-6.5 14.9-14.8 14.9z m-59.7-29.9h44.8v-20.1c0-3.1 1-6.2 2.8-8.7 3.1-4.8 4.7-10.3 4.7-16.1 0-16.5-13.4-29.9-29.9-29.9s-29.9 13.6-29.9 30c0 5.8 1.6 11.3 4.7 16.1 0.2 0.2 0.3 0.5 0.5 0.7l0.2 0.3c2 3.2 2.7 6.8 2.1 10.3v17.4z"
          fill="#434343" p-id="1050"></path>
    <path d="M818.3 880.9H430.1V440.4h388.2z" fill="#FFF3CB" p-id="1051"></path>
    <path d="M818.3 895.8H430.1c-8.2 0-14.9-6.7-14.9-14.9V440.4c0-8.2 6.7-14.9 14.9-14.9h388.3c8.2 0 14.9 6.7 14.9 14.9v440.5c0 8.2-6.7 14.9-15 14.9zM445 866h358.4V455.3H445V866z"
          fill="#434343" p-id="1052"></path>
    <path d="M527.1 300.4h44.8v140h-44.8z" fill="#FFF3CB" p-id="1053"></path>
    <path d="M571.9 455.3h-44.8c-8.2 0-14.9-6.7-14.9-14.9v-140c0-8.2 6.7-14.9 14.9-14.9h44.8c8.2 0 14.9 6.7 14.9 14.9v140c0.1 8.2-6.6 14.9-14.9 14.9z m-29.8-29.9H557V315.3h-14.9v110.1z"
          fill="#434343" p-id="1054"></path>
    <path d="M676.5 300.4h44.8v140h-44.8z" fill="#FFF3CB" p-id="1055"></path>
    <path d="M721.3 455.3h-44.8c-8.2 0-14.9-6.7-14.9-14.9v-140c0-8.2 6.7-14.9 14.9-14.9h44.8c8.2 0 14.9 6.7 14.9 14.9v140c0 8.2-6.7 14.9-14.9 14.9z m-29.9-29.9h14.9V315.3h-14.9v110.1z"
          fill="#434343" p-id="1056"></path>
    <path d="M228.5 314.4h44.8v500.3h-44.8z" fill="#F4BA45" p-id="1057"></path>
    <path d="M273.3 829.6h-44.8c-8.2 0-14.9-6.7-14.9-14.9V314.4c0-8.2 6.7-14.9 14.9-14.9h44.8c8.2 0 14.9 6.7 14.9 14.9v500.3c0 8.2-6.7 14.9-14.9 14.9z m-29.9-29.9h14.9V329.3h-14.9v470.4z"
          fill="#434343" p-id="1058"></path>
    <path d="M710.5 681.5c0.7 2.8 1.2 5.6 1.6 8.5 0.6 4 0.8 8.1 0.8 12.3 0 36.5-22.1 67.9-53.6 81.5l-0.1-0.2c1.9-4.6 3-9.7 3-15.1 0-38.8-38-69.9-38-69.9s-38 31-38 69.9c0 5.4 1.1 10.6 3.1 15.3-31.6-13.6-53.8-45-53.8-81.6 0-24.5 9.9-46.7 26-62.8 2.1-2.1 17-16.8 19.3-18.7 32.6-30.7 43.4-83.4 43.4-83.4 76.1 76.2 86.3 144.2 86.3 144.2z"
          fill="#EF4545" p-id="1059"></path>
    <path d="M589.2 798.8c-2 0-4-0.4-5.9-1.2-38.2-16.4-62.8-53.8-62.8-95.3 0-27.7 10.8-53.7 30.4-73.3 0.2-0.2 15.5-15.4 19.9-19.2 28.7-27.2 38.7-74.8 38.8-75.3 1.1-5.4 5.1-9.7 10.3-11.3 5.3-1.6 11-0.1 14.9 3.7 74.8 74.8 88.7 141.8 90.4 151.6 0.7 3.1 1.3 6.2 1.7 9.4 0.7 4.7 1 9.6 1 14.4 0 41.4-24.6 78.8-62.6 95.2-3.7 1.6-7.9 1.6-11.6 0.1-3.7-1.5-6.7-4.5-8.2-8.3l-0.1-0.2c-1.4-3.6-1.4-7.6 0.1-11.2 1.2-3 1.8-6.1 1.8-9.4 0-20.1-13.5-38.5-23.1-49-9.6 10.5-23.1 28.9-23.1 49 0 3.3 0.6 6.5 1.9 9.5 1.3 3.2 1.5 6.7 0.6 10-1.2 4.1-4.1 7.5-8 9.3-2 1-4.2 1.5-6.4 1.5z m1.1-166.5c-2.1 1.8-14.8 14.3-18.3 17.7-13.9 13.9-21.6 32.5-21.6 52.2 0 20.2 8.2 39 22.1 52.7 6.9-38.5 40.7-66.6 42.3-67.9 5.5-4.5 13.4-4.5 18.9 0 1.6 1.3 35.4 29.3 42.3 67.9 13.9-13.6 22.1-32.5 22.1-52.7 0-3.4-0.2-6.9-0.7-10.3-0.3-2.4-0.8-4.7-1.3-7-0.1-0.4-0.2-0.7-0.2-1.1-0.4-2.4-9.4-54.3-64.7-117.2-7.1 19.5-19.7 45.9-40.1 65.1-0.3 0.2-0.6 0.4-0.8 0.6z"
          fill="#434343" p-id="1060"></path>
    <path d="M736.2 440.4h82.1v440.5h-82.1z" fill="#E5D9B9" p-id="1061"></path>
    <path d="M430.1 440.4h82.1v440.5h-82.1z" fill="#FFF8E1" p-id="1062"></path>
    <path d="M758.6 143.6h44.8v296.8h-44.8z" fill="#CE9D44" p-id="1063"></path>
    <path d="M445 143.6h44.8v296.8H445z" fill="#F6CA79" p-id="1064"></path>
    <path d="M803.4 455.3H445c-8.2 0-14.9-6.7-14.9-14.9V143.6c0-8.2 6.7-14.9 14.9-14.9h358.4c8.2 0 14.9 6.7 14.9 14.9v296.8c0 8.2-6.6 14.9-14.9 14.9z m-343.5-29.9h328.5V158.5H459.9v266.9z"
          fill="#434343" p-id="1065"></path>
    <path d="M818.3 895.8H430.1c-8.2 0-14.9-6.7-14.9-14.9V440.4c0-8.2 6.7-14.9 14.9-14.9h388.3c8.2 0 14.9 6.7 14.9 14.9v440.5c0 8.2-6.7 14.9-15 14.9zM445 866h358.4V455.3H445V866z"
          fill="#434343" p-id="1066"></path>
</svg>